<svg xmlns="http://www.w3.org/2000/svg" width="250" height="258.527" viewBox="0 0 250 258.527">
  <g id="candidate_icon" transform="translate(23075 -657)">
    <path id="Path_1244" data-name="Path 1244" d="M96.1,119.769A59.884,59.884,0,1,0,36.218,59.88,59.872,59.872,0,0,0,96.1,119.769Z" transform="translate(-23040.598 657)" fill="#e18f68"/>
    <path id="Path_1245" data-name="Path 1245" d="M147.988,101.645l-14.911,15.021-14.46-15.178c-.05.012-.1.012-.136.025-2.413.579-12.655,3.838-25.943,13.369-.118.083-2.816,1.954-4.08,2.746a104.205,104.205,0,0,1-10.784,6.042A67.32,67.32,0,0,1,62.98,128.9a28.13,28.13,0,0,1-6.3.55,9.143,9.143,0,0,1-3.927-.9c-.589-.137-1.026-.691-1.671-1-.5-.67-1.234-.99-1.782-1.942-.294-.42-.631-.771-.945-1.226l-.85-1.574a22.323,22.323,0,0,1-1.6-3.528,30.143,30.143,0,0,1-1.313-4,29.283,29.283,0,0,1-1.015-4.212,74.921,74.921,0,0,1-1.3-8.369c-.4-2.634-.374-5.279-.571-7.51-.006-.064,0-.12-.006-.184a21.465,21.465,0,0,1,5.085-4.973,16.3,16.3,0,0,0,4.83-6.4A180.656,180.656,0,0,0,60.749,58.9c1.286-4.169-6.4-8.782-11.419,3.017-2.122,4.274-1.2,4.713-3.352,8.97l-.771,1.45s-.445-4.111-.5-5.354c-.668-14.247-1.278-21.89-1.962-36.137-.186-3.952-1.832-5.711-4.882-5.5-2.9.209-4.179,2-4.024,5.838.312,7.777.684,8.939,1,16.71.147,2.93-1.76,2.374-1.747-.012-.5-10.6-.986-12.94-1.412-23.542-.12-2.878-1.317-4.766-4.268-5.083-2.852-.3-4.8,2.066-4.655,5.67.424,10.246.931,12.231,1.352,22.479.149,3.031-1.716,2.554-1.723.275-.378-8.122-.618-9.651-1.206-17.759a6.753,6.753,0,0,0-2.39-4.636c-3.133-2.086-6.557.573-6.412,4.9.3,9.072.792,11.532,1.166,20.6.225,2.326-1.6,2.951-1.7.242-.281-5.771-.5-4.94-.815-10.705a4.068,4.068,0,0,0-4.285-4.231c-2.67-.1-4.14,1.456-4.574,3.966a14.326,14.326,0,0,0-.039,3.166c.608,13.664.974,20.738,1.983,34.372A88.669,88.669,0,0,0,5.829,89.554c.782,3.854,2.932,5.672,3.447,7.581-.12,2.208-.265,4.529-.178,7.19a110.347,110.347,0,0,0,.558,11.611,55.12,55.12,0,0,0,.86,6.58,61.713,61.713,0,0,0,1.489,7.089,56.573,56.573,0,0,0,2.44,7.581q.8,1.954,1.619,3.929c.645,1.33,1.427,2.674,2.173,4.01a52.968,52.968,0,0,0,5.567,7.916,47.984,47.984,0,0,0,7.825,6.95,46.766,46.766,0,0,0,18.948,7.928,64.436,64.436,0,0,0,17.572.637c1.425-.159,3.168-.347,4.533-.556l.039,69.992H196.547v-26.8a271.221,271.221,0,0,1,7.744,26.8h47.771C237.937,172.466,200.968,119.112,147.988,101.645Zm-14.775,133.53h-.265L118.5,215.413l14.448-96.522h.265l14.458,96.522Z" transform="translate(-23077.063 677.537)" fill="#e18f68"/>
  </g>
</svg>
