<svg id="comment" xmlns="http://www.w3.org/2000/svg" width="250" height="250" viewBox="0 0 250 250">
  <g id="_x32__26_">
    <g id="Group_1392" data-name="Group 1392">
      <path id="Path_1290" data-name="Path 1290" d="M164.063,132.813H85.938a7.813,7.813,0,0,0,0,15.625h78.125a7.813,7.813,0,0,0,0-15.625Zm15.625-46.875H70.313a7.813,7.813,0,0,0,0,15.625H179.688a7.813,7.813,0,0,0,0-15.625ZM125,0C55.969,0,0,48.969,0,109.375c0,34.524,18.32,65.258,46.875,85.3V250l54.758-33.227A143.345,143.345,0,0,0,125,218.75c69.039,0,125-48.969,125-109.375S194.039,0,125,0Zm0,203.125a126.426,126.426,0,0,1-26.406-2.867L61.812,222.367l.492-36.234c-28.195-16.961-46.679-44.992-46.679-76.758,0-51.773,48.969-93.75,109.375-93.75S234.375,57.6,234.375,109.375,185.406,203.125,125,203.125Z" fill="#555"/>
    </g>
  </g>
</svg>
