<svg xmlns="http://www.w3.org/2000/svg" width="250" height="250" viewBox="0 0 250 250">
  <g id="default_usergirlimg" transform="translate(0 -0.002)">
    <path id="Path_1298" data-name="Path 1298" d="M125,250c68.847,0,125-56.152,125-125S193.848,0,125,0,0,56.154,0,125,56.152,250,125,250Z" fill="#e18f68"/>
    <path id="Path_1299" data-name="Path 1299" d="M151.5,168.637c-10.424-26.3-32.32-50.1-4.767-98.038,11.348-19.744,28.681-32.766,46.587-28.357,17.906-4.408,35.24,8.613,46.587,28.357,27.552,47.94,5.657,71.74-4.768,98.038l-41.818.1-41.82-.1Z" transform="translate(-68.242 -21.175)" fill="#666"/>
    <path id="Path_1300" data-name="Path 1300" d="M103.339,328.161c-1.308,2.111-4.57,20.062-8.178,33.671a124.979,124.979,0,0,0,157.067,0c-3.609-13.608-6.871-31.562-8.179-33.671-20.081-32.425-51.034-18.27-53.145-55.375,0,0-9.958,7.431-17.562,7.5s-16.87-7.03-16.87-7.03C154.368,310.327,123.406,295.76,103.339,328.161Z" transform="translate(-48.696 -139.588)" fill="#fed198"/>
    <path id="Path_1301" data-name="Path 1301" d="M255.12,278.028c-.25-1.626-.433-3.366-.539-5.24,0,0-9.958,7.431-17.562,7.5s-16.87-7.03-16.87-7.03c-.107,1.908-.3,3.673-.553,5.321.195.154.388.31.586.462l0,.027c.585.51,9.486,8.164,16.838,8.086,7.352.077,16.251-7.578,16.838-8.086v-.027c.432-.331.851-.671,1.264-1.012Z" transform="translate(-112.371 -139.589)" fill="#f0b97d"/>
    <path id="Path_1302" data-name="Path 1302" d="M201.411,196.919c.585.442,9.486,7.072,16.838,7.006,7.352.066,16.251-6.565,16.838-7.006,11.112-6.478,20.229-25.578,18.171-46.278-1.686-16.956-20.028,7.906-32.8-27.079-18.082,37.877-35.255,15.472-37.213,29.826-2.158,15.816,6.721,35.717,18.17,43.532h0Z" transform="translate(-93.602 -63.228)" fill="#fed198"/>
    <path id="Path_1303" data-name="Path 1303" d="M141.767,327.165c-10.943,5.845-30.961,6.022-38.578,18.268-1.327,2.132-4.657,28.256-8.32,43.65a124.978,124.978,0,0,0,157.349,0c-3.663-15.394-7.394-41.315-8.32-43.65-5.058-12.756-28.47-13.289-39.424-19.172-17.031,61.79-42.416,66-62.707.909l0,0h0Z" transform="translate(-48.547 -166.952)" fill="#c0d3e8"/>
    <g id="Group_1393" data-name="Group 1393" transform="translate(76.148 154.072)">
      <path id="Path_1304" data-name="Path 1304" d="M180.32,315.535c-.711,19.224,2.558,46.459,24.128,53.419-20.308.849-33.485-28.411-48.5-36.075l24.369-17.343h0Z" transform="translate(-155.951 -315.535)" fill="#fff"/>
      <path id="Path_1305" data-name="Path 1305" d="M280.611,315.535c.746,19.224-2.686,46.459-25.337,53.419,21.325.849,35.163-28.411,50.924-36.075L280.61,315.536Z" transform="translate(-206.776 -315.535)" fill="#fff"/>
    </g>
  </g>
</svg>
