<svg xmlns="http://www.w3.org/2000/svg" width="250" height="250" viewBox="0 0 250 250">
  <g id="default_partyimg" transform="translate(-174 -266)">
    <path id="Path_68" data-name="Path 68" d="M125,0A125,125,0,1,1,0,125,125,125,0,0,1,125,0Z" transform="translate(174 266)" fill="#e18f68"/>
    <g id="lotus" transform="translate(223.999 321)">
      <g id="Group_22" data-name="Group 22" transform="translate(0 26.46)">
        <g id="Group_21" data-name="Group 21">
          <path id="Path_15" data-name="Path 15" d="M149.369,186.809c-.459-.5-10.1-10.879-23.731-16.109a48.216,48.216,0,0,0,6.958-25.009v-8.82a4.41,4.41,0,0,0-4.41-4.41h-8.82A48.077,48.077,0,0,0,95.888,138.5c-4.3-17.722-16.854-30.556-17.493-31.2a4.41,4.41,0,0,0-6.26,0c-.64.644-13.2,13.479-17.493,31.2a48.078,48.078,0,0,0-23.477-6.043h-8.82a4.41,4.41,0,0,0-4.41,4.41v8.82A48.215,48.215,0,0,0,24.893,170.7c-13.627,5.229-23.272,15.609-23.731,16.109a4.41,4.41,0,0,0-.01,5.954c.71.779,17.645,19.078,38.833,19.078a43.679,43.679,0,0,0,18.326-4.333c5.72,7.45,14.381,12.356,14.8,12.591a4.412,4.412,0,0,0,4.308,0c.42-.235,9.081-5.141,14.8-12.591a43.674,43.674,0,0,0,18.326,4.333c21.188,0,38.122-18.3,38.833-19.079A4.41,4.41,0,0,0,149.369,186.809Zm-74.1-69.668C80.023,123.094,88.5,135.727,88.5,150.1c0,14.317-8.488,26.991-13.237,32.96-4.751-5.954-13.224-18.586-13.224-32.96C62.035,135.784,70.523,123.11,75.272,117.141ZM39.985,203.021c-12.59,0-23.938-8.544-29.207-13.223,3.9-3.45,11.095-9,19.619-11.682a48.414,48.414,0,0,0,33.258,16C56.77,199.135,48.5,203.021,39.985,203.021Zm-13.23-57.331v-4.41h4.41A39.3,39.3,0,0,1,53.264,148q-.047,1.041-.049,2.1c0,14.779,7.2,27.606,12.719,35.274A39.734,39.734,0,0,1,26.755,145.691Zm48.511,65.364a44.994,44.994,0,0,1-9.156-7.909A72.208,72.208,0,0,0,75.265,196a72.207,72.207,0,0,0,9.156,7.147A44.989,44.989,0,0,1,75.265,211.055ZM97.316,150.1q0-1.055-.049-2.1a39.3,39.3,0,0,1,22.1-6.724h4.41v4.41A39.734,39.734,0,0,1,84.6,185.375C90.119,177.706,97.316,164.879,97.316,150.1Zm13.23,52.921c-9.241,0-17.731-4.608-23.641-8.9a48.413,48.413,0,0,0,33.229-16c8.531,2.687,15.733,8.24,19.626,11.688C134.508,194.485,123.194,203.021,110.546,203.021Z" transform="translate(0 -106)" fill="#fff"/>
        </g>
      </g>
      <g id="Group_24" data-name="Group 24" transform="translate(70.855 0)">
        <g id="Group_23" data-name="Group 23" transform="translate(0 0)">
          <path id="Path_16" data-name="Path 16" d="M245.41,16A4.41,4.41,0,0,0,241,20.41v8.82a4.41,4.41,0,0,0,8.82,0V20.41A4.41,4.41,0,0,0,245.41,16Z" transform="translate(-241 -16)" fill="#fff"/>
        </g>
      </g>
      <g id="Group_26" data-name="Group 26" transform="translate(32.456 18.932)">
        <g id="Group_25" data-name="Group 25" transform="translate(0 0)">
          <path id="Path_17" data-name="Path 17" d="M124.159,87.922l-6.237-6.237a4.41,4.41,0,1,0-6.237,6.237l6.237,6.237a4.41,4.41,0,1,0,6.237-6.237Z" transform="translate(-110.394 -80.393)" fill="#fff"/>
        </g>
      </g>
      <g id="Group_28" data-name="Group 28" transform="translate(103.017 18.932)">
        <g id="Group_27" data-name="Group 27" transform="translate(0 0)">
          <path id="Path_18" data-name="Path 18" d="M364.159,81.685a4.41,4.41,0,0,0-6.237,0l-6.236,6.237a4.41,4.41,0,0,0,6.237,6.237l6.237-6.237A4.41,4.41,0,0,0,364.159,81.685Z" transform="translate(-350.394 -80.393)" fill="#fff"/>
        </g>
      </g>
    </g>
  </g>
</svg>
