<svg xmlns="http://www.w3.org/2000/svg" width="203.046" height="250" viewBox="0 0 203.046 250">
  <g id="delete" transform="translate(0.003 0.001)">
    <path id="Path_1291" data-name="Path 1291" d="M228.253,154.7a5.854,5.854,0,0,0-5.855,5.855V271.213a5.855,5.855,0,0,0,11.71,0V160.558A5.854,5.854,0,0,0,228.253,154.7Zm0,0" transform="translate(-92.19 -64.128)" fill="#555"/>
    <path id="Path_1292" data-name="Path 1292" d="M110.253,154.7a5.854,5.854,0,0,0-5.855,5.855V271.213a5.855,5.855,0,0,0,11.71,0V160.558A5.854,5.854,0,0,0,110.253,154.7Zm0,0" transform="translate(-43.277 -64.128)" fill="#555"/>
    <path id="Path_1293" data-name="Path 1293" d="M16.625,74.426V218.676a32.3,32.3,0,0,0,8.588,22.278A28.832,28.832,0,0,0,46.133,250H156.907a28.825,28.825,0,0,0,20.919-9.045,32.3,32.3,0,0,0,8.588-22.278V74.426a22.365,22.365,0,0,0-5.738-43.982H150.7V23.126A23,23,0,0,0,127.514,0H75.525A23,23,0,0,0,52.34,23.126v7.318H22.363a22.365,22.365,0,0,0-5.738,43.982ZM156.907,238.289H46.133c-10.01,0-17.8-8.6-17.8-19.614V74.941H174.7V218.676C174.7,229.69,166.917,238.289,156.907,238.289ZM64.049,23.126A11.28,11.28,0,0,1,75.525,11.709h51.989A11.28,11.28,0,0,1,138.99,23.126v7.318H64.049ZM22.363,42.154H180.676a10.539,10.539,0,0,1,0,21.077H22.363a10.539,10.539,0,1,1,0-21.077Zm0,0" transform="translate(0 0)" fill="#555"/>
    <path id="Path_1294" data-name="Path 1294" d="M169.253,154.7a5.854,5.854,0,0,0-5.855,5.855V271.213a5.855,5.855,0,0,0,11.71,0V160.558A5.854,5.854,0,0,0,169.253,154.7Zm0,0" transform="translate(-67.734 -64.128)" fill="#555"/>
  </g>
</svg>
