<svg xmlns="http://www.w3.org/2000/svg" width="243.021" height="250" viewBox="0 0 243.021 250">
  <g id="dislike_fill" transform="translate(243.021 250) rotate(180)">
    <path id="Path_91" data-name="Path 91" d="M242.4,169.96c5.123-6.535,7.581-13.54,7.267-20.755a31.885,31.885,0,0,0-6.8-17.984c3.4-8.469,4.705-21.8-6.639-32.152-8.312-7.581-22.428-10.979-41.98-10.038a164.066,164.066,0,0,0-25.721,3.294h-.052c-2.614.471-5.385,1.046-8.208,1.673-.209-3.346.366-11.658,6.535-30.374,7.319-22.271,6.9-39.314-1.359-50.711C156.769.941,142.915,0,138.837,0a13.129,13.129,0,0,0-10.09,4.6c-5.8,6.744-5.123,19.187-4.391,24.937-6.9,18.507-26.244,63.885-42.608,76.485a5.6,5.6,0,0,0-.836.732,56.161,56.161,0,0,0-10.247,15.37,21.574,21.574,0,0,0-10.351-2.614H28.423A21.765,21.765,0,0,0,6.675,141.259v84.954a21.765,21.765,0,0,0,21.748,21.748h31.89a21.7,21.7,0,0,0,12.547-3.973l12.286,1.464a526.365,526.365,0,0,0,69.689,3.816c6.221.471,12.077.732,17.514.732a117.3,117.3,0,0,0,24.31-2.2c16-3.4,26.924-10.194,32.466-20.18a32,32,0,0,0,3.555-20.023c10.4-9.41,12.233-19.814,11.867-27.133A35.315,35.315,0,0,0,242.4,169.96ZM28.423,233.846a7.642,7.642,0,0,1-7.633-7.633V141.207a7.642,7.642,0,0,1,7.633-7.633h31.89a7.642,7.642,0,0,1,7.633,7.633v84.954a7.642,7.642,0,0,1-7.633,7.633H28.423Zm200.6-70a7.026,7.026,0,0,0-.941,8.522,21.751,21.751,0,0,1,2.4,8.731c.366,6.849-2.928,12.913-9.829,18.089a7.124,7.124,0,0,0-2.4,8.051,18.463,18.463,0,0,1-1.412,13.488c-3.5,6.273-11.292,10.77-23.108,13.279-9.463,2.039-22.323,2.4-38.112,1.15h-.732c-33.616.732-67.6-3.66-67.963-3.712h-.052l-5.28-.627a22.15,22.15,0,0,0,.47-4.6V141.207a22.115,22.115,0,0,0-.993-6.483,43.7,43.7,0,0,1,9.724-17.932c23.473-18.611,46.424-81.4,47.417-84.118a6.618,6.618,0,0,0,.314-3.5c-.889-5.855-.575-13.018.68-15.161,2.771.052,10.247.836,14.743,7.058,5.333,7.371,5.123,20.546-.627,38.007-8.783,26.61-9.515,40.621-2.562,46.79a11.394,11.394,0,0,0,11.4,2.039c3.189-.732,6.221-1.359,9.1-1.83.209-.052.471-.1.68-.157,16.05-3.5,44.8-5.646,54.789,3.45,8.469,7.737,2.457,17.984,1.778,19.082a6.991,6.991,0,0,0,1.255,9.1c.052.052,5.542,5.228,5.8,12.181C235.764,154.381,233.568,159.138,229.02,163.844Z" transform="translate(-6.675 0)" fill="#555"/>
    <path id="fill" d="M28.423,234.846c-4.235,0-8.633-4.45-8.633-8.633V141.207c0-4.235,4.45-8.633,8.633-8.633h32.89a8.751,8.751,0,0,1,7.633,8.633c.416,9.236,0,45.7,0,84.954,0,4.235-3.45,8.633-7.633,8.633Zm201.6-71a7.026,7.026,0,0,0-.941,8.522,21.751,21.751,0,0,1,2.4,8.731c.366,6.849-2.928,12.913-9.829,18.089a7.124,7.124,0,0,0-2.4,8.051,18.463,18.463,0,0,1-1.412,13.488c-3.5,6.273-12.292,11.77-24.108,14.279-9.463,2.039-22.323,2.4-38.112,1.15h-.732c-33.616.732-67.6-3.66-67.963-3.712l-.052,1-6.28-1.627a32.826,32.826,0,0,0,.47-5.6V141.207a22.115,22.115,0,0,0-.993-6.483c.941-3.5,3.555-12.292,9.724-18.932,23.473-18.611,46.424-80.4,47.417-83.118a6.618,6.618,0,0,0,.314-3.5c-.889-5.855-.073-14.408,1.68-16.161,3.171,0,12.247,1.836,16.743,8.058,5.333,7.371,5.123,20.546-.627,38.007-8.783,26.61-10.515,40.621-3.562,46.79,3.45,3.084,7.051,2.241,10.4,1.039,3.189-.732,6.221-2.359,9.1-2.83.209-.052.471-.1.68-.157,16.05-3.5,45.8-4.646,55.789,4.45,8.469,7.737,3.457,18.984,2.778,20.082-1.934,2.928-2.359,6.744.255,9.1.052.052,5.542,5.228,5.8,12.181C236.764,154.381,234.568,159.138,230.02,163.844Z" transform="translate(-6.79 -0.011)" fill="#555"/>
  </g>
</svg>
