<svg xmlns="http://www.w3.org/2000/svg" width="186.44" height="250" viewBox="0 0 186.44 250">
  <g id="download" transform="translate(-7.5)">
    <path id="Path_1295" data-name="Path 1295" d="M25.714,119.97a4.237,4.237,0,1,0-5.992,5.992l42.284,42.284A4.188,4.188,0,0,0,65,169.492c.03,0,.059-.017.089-.017s.055.017.089.017a4.159,4.159,0,0,0,3.369-1.792l41.911-41.911a4.237,4.237,0,0,0-5.992-5.992L69.413,154.847V4.237a4.237,4.237,0,0,0-8.475,0V155.2Z" transform="translate(35.545)"/>
    <path id="Path_1296" data-name="Path 1296" d="M130.381,16a4.237,4.237,0,1,0,0,8.475h55.085V189.729H15.975V24.475H71.059a4.237,4.237,0,0,0,0-8.475H7.5V198.2H193.941V16Z" transform="translate(0 51.797)"/>
  </g>
</svg>
