<svg xmlns="http://www.w3.org/2000/svg" width="250" height="249.97" viewBox="0 0 250 249.97">
  <path id="election_icon" d="M246.823,31.7,173.912.449A5.219,5.219,0,0,0,167.8,1.98L146.966,28.019a5.241,5.241,0,0,0-1.021,4.375,5.133,5.133,0,0,0,2.562,3.375L83.107,60.3a26.183,26.183,0,0,0-13.2,10.989L48.287,107.325a25.9,25.9,0,0,0-.958,25.039l1.531,3.062H26.039a5.21,5.21,0,0,0-5.208,5.208v98.95H5.208a5.208,5.208,0,0,0,0,10.416H182.276a5.208,5.208,0,0,0,0-10.416H166.653V186.36a5.205,5.205,0,0,0-7.426-4.708A82.581,82.581,0,0,1,147.3,186.3a4.809,4.809,0,0,0-1.229.541l-33.914,20.342a34.694,34.694,0,0,1-36.466-59.026l4.927-3.114q5.312-3.343,9.645-6.02a5.209,5.209,0,0,0,2.24-5.958A38.7,38.7,0,0,0,87.056,122.3c7.978-3.416,18.665-9.614,24.081-15.936a.411.411,0,0,1,.094.052q1.75,1.031,4.041,2.146c.083.041.146.083.229.125a.039.039,0,0,1,.031.01A59.421,59.421,0,0,0,130,113.553c-6.083,7.531-12.28,16.853-14.53,23.061-4.3,1.937-13.28,7.01-34.195,20.332a24.285,24.285,0,0,0,25.539,41.308L142.6,176.787c5.6-1.365,33.445-9.7,54.537-43.819,16.53-26.737,25.831-48.277,29.664-57.985l.583.291a15.5,15.5,0,0,0,6.978,1.666,15.8,15.8,0,0,0,10.874-4.406A15.488,15.488,0,0,0,250,61.307V36.5A5.249,5.249,0,0,0,246.823,31.7Z" transform="translate(0 -0.031)" fill="#e18f68"/>
</svg>
