<svg xmlns="http://www.w3.org/2000/svg" width="250" height="250" viewBox="0 0 250 250">
  <g id="Election_circle" transform="translate(15865 -4156)">
    <path id="Path_68" data-name="Path 68" d="M125,0A125,125,0,1,1,0,125,125,125,0,0,1,125,0Z" transform="translate(-15865 4156)" fill="#e18f68"/>
    <path id="election_icon" d="M118.475,15.232l-35-15a2.5,2.5,0,0,0-2.935.735l-10,12.5a2.516,2.516,0,0,0-.49,2.1,2.464,2.464,0,0,0,1.23,1.62L39.891,28.962a12.568,12.568,0,0,0-6.334,5.275l-10.379,17.3a12.434,12.434,0,0,0-.46,12.02l.735,1.47H12.5a2.5,2.5,0,0,0-2.5,2.5v47.5H2.5a2.5,2.5,0,0,0,0,5H87.493a2.5,2.5,0,0,0,0-5h-7.5V89.479a2.5,2.5,0,0,0-3.565-2.26,39.635,39.635,0,0,1-5.725,2.23,2.308,2.308,0,0,0-.59.26L53.836,99.475a16.655,16.655,0,0,1-17.5-28.336l2.365-1.5q2.55-1.6,4.63-2.89a2.5,2.5,0,0,0,1.075-2.86,18.577,18.577,0,0,0-2.615-5.165c3.83-1.64,8.959-4.615,11.559-7.65a.2.2,0,0,1,.045.025q.84.5,1.94,1.03c.04.02.07.04.11.06a.019.019,0,0,1,.015,0,28.52,28.52,0,0,0,6.944,2.33c-2.92,3.615-5.894,8.09-6.974,11.07-2.065.93-6.374,3.365-16.414,9.76a11.658,11.658,0,0,0,12.259,19.83L68.45,84.884c2.69-.655,16.054-4.655,26.178-21.036a180.58,180.58,0,0,0,14.239-27.836l.28.14a7.44,7.44,0,0,0,3.35.8,7.584,7.584,0,0,0,5.22-2.115A7.435,7.435,0,0,0,120,29.447V17.537A2.52,2.52,0,0,0,118.475,15.232Z" transform="translate(-15800 4220.969)" fill="#fff"/>
  </g>
</svg>
