<svg xmlns="http://www.w3.org/2000/svg" width="250" height="250" viewBox="0 0 250 250">
  <g id="female_select" transform="translate(20099 -2866)">
    <circle id="Ellipse_17" data-name="Ellipse 17" cx="125" cy="125" r="125" transform="translate(-20099 2866)" fill="#e18f68"/>
    <g id="smiling-girl" transform="translate(-20040.951 2913.988)">
      <path id="Path_196" data-name="Path 196" d="M194.79,317.033a14.391,14.391,0,0,1-20.33,0,2.938,2.938,0,0,0-4.154,4.154,20.274,20.274,0,0,0,28.638,0,2.938,2.938,0,0,0-4.154-4.154Z" transform="translate(-117.387 -200.073)" fill="#fff"/>
      <path id="Path_197" data-name="Path 197" d="M161.392,146.1c-6.881-7.62-7.173-27.037-6.358-47.128a15.383,15.383,0,0,0,1.044-21.393c1-20.492,1.532-34.195-4.968-46.848C146.676,22.1,139.5,14.888,129.785,9.295A69.8,69.8,0,0,0,92.427.045,40.156,40.156,0,0,0,62.784,14.829a28.43,28.43,0,0,0-22.912,13.8c-.4.69-.789,1.4-1.154,2.108-6.5,12.66-5.973,26.362-4.972,46.852a15.383,15.383,0,0,0,1.044,21.387c.814,20.092.523,39.511-6.358,47.131a2.938,2.938,0,0,0,1.142,4.717A61.994,61.994,0,0,0,51.591,154.8,70.013,70.013,0,0,0,69.77,152.34a70.77,70.77,0,0,0,16.575-6.729,52.563,52.563,0,0,0,17.136,0,70.769,70.769,0,0,0,16.574,6.729,69.085,69.085,0,0,0,18.084,2.46,62.576,62.576,0,0,0,22.111-3.978,2.938,2.938,0,0,0,1.142-4.717ZM147.424,93.8V79.22c0-.039,0-.077,0-.116v-.447a9.547,9.547,0,0,1-.091,18.2C147.391,95.844,147.424,94.828,147.424,93.8ZM43.945,33.42c.318-.618.656-1.236,1.006-1.837A22.6,22.6,0,0,1,64.263,20.654H64.3a2.939,2.939,0,0,0,2.27-1.15A34.352,34.352,0,0,1,92.636,5.917a63.938,63.938,0,0,1,34.217,8.47c8.719,5.019,15.122,11.423,19.031,19.033,5.2,10.128,5.357,21.144,4.5,40.073a15.323,15.323,0,0,0-2.963-.892V69.614a2.938,2.938,0,1,0-5.875,0v6.672c-40.466.432-62.372-19.059-68.217-25.157a2.938,2.938,0,0,0-4.838.916c-4.269,10.384-11.727,15.817-23.471,17.1a2.937,2.937,0,0,0-2.619,2.92V72.6a15.293,15.293,0,0,0-2.966.893C38.584,54.569,38.739,43.553,43.945,33.42Zm-1.45,63.434a9.547,9.547,0,0,1-.091-18.2V93.8C42.4,94.828,42.436,95.844,42.494,96.854Zm-7.176,49.714c5.239-8.941,6.147-23.806,5.481-44.088a15.283,15.283,0,0,0,2.414.533,52.687,52.687,0,0,0,34.405,40.372C69.118,147.041,53.031,151.888,35.318,146.567Zm59.6-6.129A46.688,46.688,0,0,1,48.279,93.8V74.625C59.3,72.813,67.14,67.389,72.113,58.135a86.4,86.4,0,0,0,20.72,13.8c14.5,6.978,30.877,10.42,48.716,10.23V93.8A46.688,46.688,0,0,1,94.914,140.438Zm26.868,6.281a69.515,69.515,0,0,1-9.583-3.332,52.686,52.686,0,0,0,34.416-40.375,15.294,15.294,0,0,0,2.411-.532c-.666,20.286.242,35.15,5.483,44.091A58.942,58.942,0,0,1,121.781,146.72Z" transform="translate(-27.675 0)" fill="#fff"/>
      <path id="Path_198" data-name="Path 198" d="M113.681,226.349a2.937,2.937,0,0,0,4.154,4.154,4.835,4.835,0,0,1,6.829,0,2.938,2.938,0,0,0,4.155-4.154A10.716,10.716,0,0,0,113.681,226.349Z" transform="translate(-81.555 -141.252)" fill="#fff"/>
      <path id="Path_199" data-name="Path 199" d="M278.835,230.5a2.937,2.937,0,0,0,0-4.154,10.716,10.716,0,0,0-15.138,0,2.937,2.937,0,0,0,4.154,4.154,4.835,4.835,0,0,1,6.829,0,2.938,2.938,0,0,0,4.155,0Z" transform="translate(-176.484 -141.252)" fill="#fff"/>
    </g>
  </g>
</svg>
