<svg xmlns="http://www.w3.org/2000/svg" width="250" height="250" viewBox="0 0 250 250">
  <defs>
    <style>
      .cls-1 {
        fill: #0078bf;
      }

      .cls-2 {
        fill: #fff;
      }
    </style>
  </defs>
  <g id="linkedin_footer" transform="translate(13848 -3504)">
    <rect id="Rectangle_1666" data-name="Rectangle 1666" class="cls-1" width="250" height="250" rx="40" transform="translate(-13848 3504)"/>
    <g id="linkedin-logo" transform="translate(-13794 3561)">
      <path id="LinkedIn" class="cls-2" d="M142.857,93.251v52.815H112.238V96.788c0-12.379-4.429-20.827-15.512-20.827-8.46,0-13.5,5.693-15.71,11.2A20.951,20.951,0,0,0,80,94.628v51.439H49.371s.413-83.461,0-92.108H80V67.014c-.062.1-.143.2-.2.3H80v-.3c4.069-6.267,11.336-15.22,27.6-15.22C127.75,51.794,142.857,64.959,142.857,93.251ZM17.332,9.558C6.854,9.558,0,16.431,0,25.469,0,34.31,6.655,41.392,16.925,41.392h.2c10.681,0,17.324-7.08,17.324-15.923C34.252,16.431,27.811,9.558,17.332,9.558ZM1.819,146.066H32.437V53.959H1.819Z" transform="translate(0 -9.558)"/>
    </g>
  </g>
</svg>
