<svg xmlns="http://www.w3.org/2000/svg" width="399" height="358.791" viewBox="0 0 399 358.791">
  <g id="Logo_Approved" transform="translate(-504.75 -54.79)">
    <text id="ApnaNeta" transform="translate(507.75 336.581)" fill="#555" font-size="120" font-family="Condiment-Regular, Condiment"><tspan x="0" y="0">Ap</tspan><tspan y="0" letter-spacing="-0.03em">n</tspan><tspan y="0">aN</tspan><tspan y="0" letter-spacing="-0.02em">e</tspan><tspan y="0" letter-spacing="-0.03em">t</tspan><tspan y="0">a</tspan></text>
    <circle id="Ellipse_429" data-name="Ellipse 429" cx="97.402" cy="97.402" r="97.402" transform="translate(594.416 54.79)" fill="#e18f68"/>
    <path id="Path_1238" data-name="Path 1238" d="M618.15,201.759s44.669,0,60.56-2.016,44.748-3.4,64.83-7.906-40.2-6.957-40.2-6.957l-68.15,3.755-15.5,8.341Z" transform="translate(11.211 -18.22)" fill="#d8d8d8"/>
    <path id="Path_1239" data-name="Path 1239" d="M614.45,203.49s15.812-21.425,57.6-26.881,95.663-2.569,95.663-2.569,1.068.237.87,1.818-10.317,49.215-10.317,49.215-19.765-1.028-30.952-.474-48.5-1.7-63.248.474-23.718,2.886-30.517,6.6c0,0-3.716,2.016-4.585,4.348,0,0-.751-4.269-1.818-9.685s-10-19.765-10-19.765S615.122,204.32,614.45,203.49Z" transform="translate(0.285 -52.483)" fill="#fff"/>
  </g>
</svg>
