<svg xmlns="http://www.w3.org/2000/svg" viewBox="0 0 499.66 165.68"><defs><style>.cls-1{fill:#e18f68;}.cls-2{fill:#555;}.cls-3{fill:#d8d8d8;}.cls-4{fill:#fff;}</style></defs><title>Asset 1</title><g id="Layer_2" data-name="Layer 2"><g id="Layer_1-2" data-name="Layer 1"><circle class="cls-1" cx="77.8" cy="77.8" r="77.8"/><path class="cls-2" d="M177.77,82.57c-.46,0-.75-.3-.89-.89q0-1.67,2.37-3.83A15,15,0,0,1,183,75.09c.95-.39,4.12-.65,9.49-.78l1.38-1.58q29.9-34.52,41.5-34.52c.66-.06,1.41-.1,2.27-.1,4.52,0,6.78,1.09,6.78,3.25a11.43,11.43,0,0,1-1.28,3.15l-4.42,8.85q-3.15,6.3-6.1,12.78-15.93,35.11-18.49,46c0,.53-.67.79-2,.79s-3-.74-4.86-2.21-2.86-2.77-2.86-3.89q0-3,4.82-11.51c3.21-5.63,4.82-9.31,4.82-11q0-3.45-13.37-3.44-2,0-6.1.19L190.85,86a128.24,128.24,0,0,0-13.18,22.92c-.72,1.63-2.92,2.46-6.59,2.46s-5.51-.53-5.51-1.58q0-1.08,6.15-9.49t14.61-18.64c-1,.14-2.23.27-3.74.4s-2.67.24-3.49.34Zm40.82-12.69a36,36,0,0,0,5.75-9.34q1.92-4.73,1.92-6.39a1.48,1.48,0,0,0-1.67-1.68q-3,0-9.74,6.25A178.61,178.61,0,0,0,200.1,74.31l10.72.19Q214.75,74.5,218.59,69.88Z"/><path class="cls-2" d="M234,111c-2.95,0-4.66.3-5.12.89q-3.34,4.32-13.82,24.39t-13.32,28.22a1.75,1.75,0,0,1-1.87,1.19c-1,0-2.13-.73-3.44-2.17a6.78,6.78,0,0,1-2-4.62q0-3.45,9.83-20.9t23.36-40.28q13.53-22.81,15.84-27.19t2.41-4.62A6.23,6.23,0,0,1,248,63.69a10.79,10.79,0,0,1,6-1.48c1.38,0,2.07.43,2.07,1.28,0,.39-.91,2-2.71,4.72s-2.7,4.46-2.7,5.11.23,1,.69,1a6.54,6.54,0,0,0,2.55-1.18q5.81-3.64,10.72-3.64a4.89,4.89,0,0,1,3.54,1.57q1.58,1.57,1.58,5.21a31.37,31.37,0,0,1-4.72,16,39.72,39.72,0,0,1-13.13,13.37A32.7,32.7,0,0,1,234,111Zm25.37-29.6a3.76,3.76,0,0,0-.59-2.21,1.74,1.74,0,0,0-1.47-.84c-2.37,0-5,1.12-7.77,3.34a38.93,38.93,0,0,0-7.33,7.58Q239.14,93.49,237,97c-1.42,2.36-2.12,3.87-2.12,4.52s.48,1.31,1.43,2a5.86,5.86,0,0,0,3.39,1q6.2,0,12.93-8.46T259.4,81.39Z"/><path class="cls-2" d="M292.33,111.58c-1.84,0-2.75-.43-2.75-1.28l.19-.59A176.41,176.41,0,0,0,299.9,92.65q4.23-8.2,4.23-10.67a1.6,1.6,0,0,0-1.57-1.77q-3.84,0-10.28,4.92A90.44,90.44,0,0,0,281,95.26a93.66,93.66,0,0,0-7.23,8.5,8.13,8.13,0,0,1-7.08,3.3c-1.7,0-2.55-.43-2.55-1.28q0-2.57,9.63-18t12.79-16.67a8.39,8.39,0,0,1,4.28-1c1.73,0,2.6.34,2.6,1s-.78,2.18-2.36,4.48-2.36,3.77-2.36,4.42.41.79.84.79a1.74,1.74,0,0,0,1.13-.4q14.55-11.3,23.21-11.31c2.42,0,3.64,1.42,3.64,4.23q0,2.76-4.08,11.9A98.94,98.94,0,0,1,303.1,103Q296.86,111.57,292.33,111.58Z"/><path class="cls-2" d="M333.06,103.91l.19-2.06c0-.53-.19-.79-.59-.79-.59,0-1.78.85-3.59,2.56a46,46,0,0,1-6.78,5.16,15.07,15.07,0,0,1-8.17,2.61c-2.72,0-4.08-2-4.08-6q0-7.48,6.49-17.22a56.9,56.9,0,0,1,7.72-9.09,35.73,35.73,0,0,1,10.68-6.89,33,33,0,0,1,13.18-2.7,10,10,0,0,1,6.19,1.92,5.7,5.7,0,0,1,2.56,4.72c0,1.87-.56,2.8-1.67,2.8a4.5,4.5,0,0,1-2.36-1.08C351,76.6,348.11,76,344.17,76q-7.77,0-14.7,7t-6.94,13.92a2.89,2.89,0,0,0,.54,1.67,1.74,1.74,0,0,0,1.53.79q3,0,7.57-4.08a46.75,46.75,0,0,0,9.05-11.76c.2-.59.92-1.14,2.16-1.67a11.46,11.46,0,0,1,4.43-.79c2.42.2,3.64.73,3.64,1.58a9.35,9.35,0,0,1-.74,1.23Q350,85,348.11,88c-1.25,2-3,5.2-5.27,9.69s-3.59,8-4,10.67c-.07.78-.39,1.18-1,1.18C334.66,109.52,333.06,107.65,333.06,103.91Z"/><path class="cls-2" d="M379.53,83.16q3.2-17.61,3.19-19.43c0-1.21-.34-1.81-1-1.81s-1.62.68-2.8,2.06a29.54,29.54,0,0,0-2.95,4l-1.28,2.07a357.66,357.66,0,0,0-17.8,34.13c-1.32,2.88-2.56,4.73-3.74,5.55a8.82,8.82,0,0,1-5.06,1.23q-3.3,0-3.3-1.47v-.3q0-1.27,5-9.34,19.17-30.78,28-48.69A18.63,18.63,0,0,0,380.07,43V41.46a2.44,2.44,0,0,1,.54-1.43c.36-.49,1.49-1,3.39-1.57a29.06,29.06,0,0,1,7.87-.84q7.58,0,7.57,2.86c0,.58-1.34,7-4,19.07s-4,19.46-4,22,.26,3.78.79,3.78A3.58,3.58,0,0,0,394.62,84a12.28,12.28,0,0,0,2-2.45l.69-1.28Q403.57,70,408.59,59.8l7.38-15q2.36-4.81,4.13-6.1a12.85,12.85,0,0,1,6.49-1.47c2.62,0,3.93.39,3.93,1.18v.2q0,.69-5.21,8.26T411.49,68.16q-8.61,13.73-15,26.21-2.75,6.39-2.75,10.23a3,3,0,0,1-.44,1.77c-.3.39-1.32.77-3.05,1.13a26.41,26.41,0,0,1-5.36.54h-3.15a9.16,9.16,0,0,1-2.66-.49c-1.83-.52-2.75-1.34-2.75-2.46Q376.33,100.77,379.53,83.16Z"/><path class="cls-2" d="M415.57,113q-5.7,0-8.36-3.39a13.17,13.17,0,0,1-2.65-8.36,28.36,28.36,0,0,1,2.16-10.43,46.71,46.71,0,0,1,5.95-10.57,31.47,31.47,0,0,1,9.94-8.61,26.37,26.37,0,0,1,13.22-3.49,6,6,0,0,1,4.92,2,7.25,7.25,0,0,1,1.67,4.77,16.42,16.42,0,0,1-4,10.62A28.73,28.73,0,0,1,429.44,93a24.13,24.13,0,0,1-8.7,2.91q-3.8.34-5.07,1.42c-.85.72-1.28,2.16-1.28,4.33a7.22,7.22,0,0,0,1.48,4.92,8.1,8.1,0,0,0,2.95,2.26c1,.39,1.47.78,1.47,1.18a2.38,2.38,0,0,1-1.47,2.16A6.74,6.74,0,0,1,415.57,113Zm17.31-35.6c0-2-.92-3-2.75-3q-3.93,0-8.71,5.5t-4.77,9.94q0,1.08,1.68,1.08,4,0,9.29-4.13T432.88,77.36Z"/><path class="cls-2" d="M486.86,44.51l4.82-.2q1,0,1,.39a3.32,3.32,0,0,1-.2,1,5.84,5.84,0,0,1-.84,1.47,7.57,7.57,0,0,1-1.52,1.58,9.16,9.16,0,0,1-5.85,1.86,47.52,47.52,0,0,0-5.12.2,6.4,6.4,0,0,0-2.8,1A10.92,10.92,0,0,0,474.77,53a12.35,12.35,0,0,0-1.38,2c-.66,1-1.11,1.77-1.38,2.17q-5.2,7.27-16.86,27.44t-14.51,31.17c-.2.66-.8,1-1.82,1s-2.41-.86-4.18-2.56S432,110.7,432,108.93s2.68-7.05,8-15.84,10.7-17.42,16.08-25.91S464.15,54,464.15,53A1.63,1.63,0,0,0,463,51.24a17.32,17.32,0,0,0-4.13-.34h-3.24c-.85,0-1.28-.39-1.28-1.18a4,4,0,0,1,1.13-2.51,9.22,9.22,0,0,1,3.44-2.31q2.31-1,4.73-2a24.91,24.91,0,0,0,6.29-4.42,55.89,55.89,0,0,0,7.82-8.85q2.46-3.35,8.46-3.35c1.37,0,2.06.43,2.06,1.28q0,.8-4.42,7.18t-4.43,8c0,1.08,1,1.62,2.95,1.62C483.13,44.48,484.63,44.51,486.86,44.51Z"/><path class="cls-2" d="M475.86,103.91l.2-2.06c0-.53-.2-.79-.59-.79q-.89,0-3.59,2.56a46.63,46.63,0,0,1-6.79,5.16,15,15,0,0,1-8.16,2.61c-2.72,0-4.08-2-4.08-6q0-7.48,6.49-17.22a56.39,56.39,0,0,1,7.72-9.09,35.56,35.56,0,0,1,10.67-6.89,33.07,33.07,0,0,1,13.18-2.7,10,10,0,0,1,6.19,1.92,5.7,5.7,0,0,1,2.56,4.72c0,1.87-.56,2.8-1.67,2.8a4.5,4.5,0,0,1-2.36-1.08C493.79,76.6,490.91,76,487,76q-7.77,0-14.7,7t-6.93,13.92a2.89,2.89,0,0,0,.54,1.67,1.73,1.73,0,0,0,1.52.79q3,0,7.57-4.08a46.52,46.52,0,0,0,9-11.76c.2-.59.92-1.14,2.17-1.67a11.41,11.41,0,0,1,4.42-.79c2.43.2,3.64.73,3.64,1.58a8.14,8.14,0,0,1-.74,1.23q-.74,1.13-2.6,4.08c-1.25,2-3,5.2-5.26,9.69s-3.59,8-4,10.67c-.06.78-.39,1.18-1,1.18Q475.87,109.52,475.86,103.91Z"/><path class="cls-3" d="M27.9,102.9s35.7,0,48.4-1.6,35.8-2.7,51.8-6.3S96,89.4,96,89.4L41.5,92.6,29.1,99.2Z"/><path class="cls-4" d="M16.2,76.9S29,59.8,62.2,55.4s76.5-2.1,76.5-2.1.9.2.7,1.5-8.2,39.3-8.2,39.3-15.8-.8-24.7-.4-38.8-1.4-50.5.4-19.1,2.4-24.6,5.4c0,0-2.9,1.6-3.6,3.4,0,0-.6-3.4-1.5-7.7s-8-15.8-8-15.8S16.7,77.6,16.2,76.9Z"/></g></g></svg>