<svg xmlns="http://www.w3.org/2000/svg" width="250" height="249.861" viewBox="0 0 250 249.861">
  <path id="Logout" d="M156.651,181.54h19.522v39.042a29.313,29.313,0,0,1-29.282,29.28H29.28A29.313,29.313,0,0,1,0,220.581V29.28A29.314,29.314,0,0,1,29.28,0H146.891a29.315,29.315,0,0,1,29.282,29.28V68.321H156.651V29.28a9.771,9.771,0,0,0-9.76-9.76H29.28a9.772,9.772,0,0,0-9.76,9.76v191.3a9.772,9.772,0,0,0,9.76,9.76H146.891a9.771,9.771,0,0,0,9.76-9.76ZM203.989,78.918l-13.8,13.8,22.448,22.449H86.378v19.52H212.633l-22.448,22.448,13.8,13.8L250,124.931Zm0,0" fill="#e18f68"/>
</svg>
