<svg id="mail" xmlns="http://www.w3.org/2000/svg" width="250" height="179.85" viewBox="0 0 250 179.85">
  <path id="Path_1" data-name="Path 1" d="M119.673,34.749,88.745,7.484.316,83.83A18.031,18.031,0,0,0,12.655,88.7H226.691a17.9,17.9,0,0,0,12.286-4.874L150.6,7.484Z" transform="translate(5.327 91.146)" fill="#a5a5a5"/>
  <path id="Path_2" data-name="Path 2" d="M239,6.874A17.916,17.916,0,0,0,226.657,2H12.622A17.843,17.843,0,0,0,.318,6.91l119.321,103Z" transform="translate(5.361 -2)" fill="#a5a5a5"/>
  <path id="Path_3" data-name="Path 3" d="M0,2.878V152.3L86.3,78.433Z" transform="translate(0 12.913)" fill="#a5a5a5"/>
  <path id="Path_4" data-name="Path 4" d="M9.167,78.484l86.3,73.864V2.875Z" transform="translate(154.529 12.862)" fill="#a5a5a5"/>
</svg>
