<svg xmlns="http://www.w3.org/2000/svg" width="250" height="250" viewBox="0 0 250 250">
  <g id="male_select" transform="translate(20422 -2866)">
    <circle id="Ellipse_16" data-name="Ellipse 16" cx="125" cy="125" r="125" transform="translate(-20422 2866)" fill="#e18f68"/>
    <g id="boy-broad-smile" transform="translate(-20365.498 2913.988)">
      <path id="Path_192" data-name="Path 192" d="M114.047,235.4a5.3,5.3,0,0,1,3.773,1.563,2.919,2.919,0,0,0,4.128-4.128,11.174,11.174,0,0,0-15.8,0,2.919,2.919,0,0,0,4.128,4.128A5.3,5.3,0,0,1,114.047,235.4Z" transform="translate(-75.395 -145.796)" fill="#fff"/>
      <path id="Path_193" data-name="Path 193" d="M271.81,232.84a2.919,2.919,0,1,0,4.128,4.128,5.342,5.342,0,0,1,7.546,0,2.919,2.919,0,1,0,4.128-4.128A11.187,11.187,0,0,0,271.81,232.84Z" transform="translate(-180.61 -145.805)" fill="#fff"/>
      <path id="Path_194" data-name="Path 194" d="M181.073,315.959a42.77,42.77,0,0,1-60.417,0,2.919,2.919,0,1,0-4.128,4.128,48.615,48.615,0,0,0,68.673,0,2.919,2.919,0,1,0-4.128-4.128Z" transform="translate(-81.988 -200.127)" fill="#fff"/>
      <path id="Path_195" data-name="Path 195" d="M161.11,92.746a16.212,16.212,0,0,0-13.269-15.92V27.992a18.853,18.853,0,0,0-25.11-17.786L104.4,3.986A72.721,72.721,0,0,0,61.537,2.567C43.259,7.61,32.78,18.274,31.163,33.433a22.16,22.16,0,0,0-3.342,6.3L26.4,43.937A5.069,5.069,0,0,0,34.728,49.2a10.186,10.186,0,0,1,1.9-1.443V76.826a16.184,16.184,0,0,0,.913,31.98,56.055,56.055,0,0,0,15.327,29.451A54.914,54.914,0,0,0,92.233,154.8h.005a55.64,55.64,0,0,0,54.781-46A16.21,16.21,0,0,0,161.11,92.746Zm-24.928-75.6A12.818,12.818,0,0,1,142,27.992v38.2a18.966,18.966,0,0,1-16.017-18.711l-.242-32.1A12.782,12.782,0,0,1,136.182,17.146Zm-103.4,26.13.567-1.679A16.35,16.35,0,0,1,55.746,32.01,22.321,22.321,0,0,0,81.732,26.6l.723-.818a2.919,2.919,0,0,0-4.373-3.868l-.723.818A16.448,16.448,0,0,1,58.21,26.717a22.214,22.214,0,0,0-18.1-.284c-.527.226-1.04.478-1.545.742C41.957,18.13,50.169,11.76,63.09,8.195a66.906,66.906,0,0,1,39.438,1.319l17.377,5.9.228,15.083a51.309,51.309,0,0,1-31.881,20.09,51.322,51.322,0,0,1-37.825-7.471A15.819,15.819,0,0,0,32.785,43.277ZM29.2,92.746a10.367,10.367,0,0,1,7.431-9.929V98.639q0,2.05.145,4.076A10.368,10.368,0,0,1,29.2,92.746Zm98.23,41.638A49.444,49.444,0,0,1,92.239,148.96h-.005a49.123,49.123,0,0,1-35.209-14.8,50.3,50.3,0,0,1-14.56-35.519V46.383A10.088,10.088,0,0,1,47.235,48a57.132,57.132,0,0,0,42.108,8.316,57.092,57.092,0,0,0,30.8-16.762V47.48A24.806,24.806,0,0,0,142,72.077V99.191A49.44,49.44,0,0,1,127.426,134.383Zm20.3-31.677c.072-1.165.113-2.337.113-3.515V82.817a10.348,10.348,0,0,1-.113,19.889Z" transform="translate(-23.357 0)" fill="#fff"/>
    </g>
  </g>
</svg>
