<svg xmlns="http://www.w3.org/2000/svg" width="250.013" height="248.775" viewBox="0 0 250.013 248.775">
  <g id="party_icon" transform="translate(23254.008 -791)">
    <path id="Path_1247" data-name="Path 1247" d="M250.944,46.193l-20.287-6.407-20.285,62.995L192.219.281l-20.285,4.27,24.557,142.005L165.527,242.65l21.354,6.407,17.083-56.588,4.27,22.422,21.355-4.272-10.677-61.928Zm0,0" transform="translate(-23336.805 790.719)" fill="#e18f68"/>
    <path id="Path_1248" data-name="Path 1248" d="M383.227,159.237,306.353,134.68l-25.626,81.146L357.6,240.384c8.542,2.135,17.083-6.407,12.813-14.948L354.4,194.472l30.962-16.016C392.835,174.185,391.768,162.441,383.227,159.237Zm0,0" transform="translate(-23394.355 723.585)" fill="#e18f68"/>
    <path id="Path_1249" data-name="Path 1249" d="M88.292,51.48,8.214,65.361C-.327,67.5-2.464,79.242,3.943,84.579l28.829,20.287L12.484,133.693c-5.337,7.474,1.067,18.152,10.678,17.085L102.173,136.9Zm0,0" transform="translate(-23254.227 765.144)" fill="#e18f68"/>
  </g>
</svg>
