<svg xmlns="http://www.w3.org/2000/svg" width="187.5" height="250" viewBox="0 0 187.5 250">
  <path id="password" d="M246.292,93.75H230.667V72.917a72.916,72.916,0,1,0-145.833,0V93.75H69.209A5.205,5.205,0,0,0,64,98.959V229.167A20.854,20.854,0,0,0,84.834,250H230.667A20.854,20.854,0,0,0,251.5,229.167V98.959A5.206,5.206,0,0,0,246.292,93.75Zm-72.947,108.8a5.209,5.209,0,0,1-5.177,5.783H147.334a5.209,5.209,0,0,1-5.178-5.783L145.442,173a20.606,20.606,0,0,1-8.525-16.754,20.834,20.834,0,0,1,41.667,0A20.606,20.606,0,0,1,170.06,173Zm26.072-108.8H116.084V72.917a41.667,41.667,0,0,1,83.333,0Z" transform="translate(-64)" fill="#a5a5a5"/>
</svg>
