<svg xmlns="http://www.w3.org/2000/svg" width="181.117" height="250" viewBox="0 0 181.117 250">
  <g id="profile" transform="translate(-1043.339 740.798)">
    <path id="Path_1297" data-name="Path 1297" d="M154.909,150.454A53.126,53.126,0,1,0,101.771,97.33,53.128,53.128,0,0,0,154.909,150.454Zm22.536,3.621H132.364A68.105,68.105,0,0,0,64.339,222.1v55.131l.14.863,3.8,1.189c35.8,11.184,66.894,14.914,92.491,14.914,50,0,78.974-14.254,80.76-15.163l3.549-1.795h.38V222.1A68.085,68.085,0,0,0,177.445,154.076Z" transform="translate(979 -785)" fill="#e18f68"/>
  </g>
</svg>
