<svg xmlns="http://www.w3.org/2000/svg" width="250" height="250" viewBox="0 0 250 250">
  <defs>
    <style>
      .cls-1 {
        fill: #1b97ef;
      }

      .cls-2 {
        fill: #fff;
      }
    </style>
  </defs>
  <g id="twitter_footer" transform="translate(14108 -3504)">
    <rect id="Rectangle_1649" data-name="Rectangle 1649" class="cls-1" width="250" height="250" rx="40" transform="translate(-14108 3504)"/>
    <g id="twitter-logo-silhouette" transform="translate(-14054 3571)">
      <g id="Group_1370" data-name="Group 1370" transform="translate(0 0)">
        <path id="Path_1262" data-name="Path 1262" class="cls-2" d="M142.858,71.171a58.524,58.524,0,0,1-16.827,4.615,29.427,29.427,0,0,0,12.881-16.2A59.08,59.08,0,0,1,120.291,66.7,29.328,29.328,0,0,0,70.354,93.417,83.2,83.2,0,0,1,9.954,62.8a29.34,29.34,0,0,0,9.07,39.118A29.309,29.309,0,0,1,5.75,98.237V98.6a29.335,29.335,0,0,0,23.5,28.736,29.684,29.684,0,0,1-7.722,1.027,28.133,28.133,0,0,1-5.517-.545,29.321,29.321,0,0,0,27.37,20.353A58.8,58.8,0,0,1,6.991,160.7,62.294,62.294,0,0,1,0,160.3a82.838,82.838,0,0,0,44.92,13.185c53.91,0,83.377-44.653,83.377-83.377l-.1-3.794A58.521,58.521,0,0,0,142.858,71.171Z" transform="translate(-0.001 -57.441)"/>
      </g>
    </g>
  </g>
</svg>
