<svg xmlns="http://www.w3.org/2000/svg" width="250" height="210.386" viewBox="0 0 250 210.386">
  <g id="users" transform="translate(-1034 729.652)">
    <path id="Path_1297" data-name="Path 1297" d="M150.864,42.458A45.427,45.427,0,0,1,172,76.206a36.65,36.65,0,1,0-21.141-33.748Zm-24.02,75.072A36.664,36.664,0,1,0,90.172,80.868,36.665,36.665,0,0,0,126.844,117.53Zm15.553,2.5H111.285a47,47,0,0,0-46.946,46.949v38.048l.1.6,2.621.821c24.7,7.719,46.166,10.293,63.831,10.293,34.5,0,54.5-9.837,55.734-10.464l2.449-1.239h.262V166.978A46.987,46.987,0,0,0,142.4,120.029Zm60.661-37.851H172.186a45.186,45.186,0,0,1-13.946,31.474,55.783,55.783,0,0,1,39.845,53.382v11.725c30.482-1.117,48.047-9.756,49.2-10.336l2.449-1.242H250V129.12A47,47,0,0,0,203.058,82.178Zm-140.55-2.5a36.421,36.421,0,0,0,19.5-5.66,45.377,45.377,0,0,1,17.057-28.94c.037-.686.1-1.367.1-2.059A36.662,36.662,0,1,0,62.508,79.682Zm32.928,33.97A45.213,45.213,0,0,1,81.5,82.353c-1.145-.084-2.278-.175-3.444-.175H46.946A47,47,0,0,0,0,129.12v38.054l.1.587,2.621.827a220.107,220.107,0,0,0,52.867,9.937V167.034A55.794,55.794,0,0,1,95.436,113.652Z" transform="translate(1034 -736)" fill="#e18f68"/>
  </g>
</svg>
